<svg width="1627" height="1312" xmlns="http://www.w3.org/2000/svg" preserveAspectRatio="xMidYMid meet">

 <g>
  <title>background</title>
  <rect fill="none" id="canvas_background" height="1314" width="1629" y="-1" x="-1"/>
 </g>
 <g>
  <title>Layer 1</title>
  <g fill="#596065" id="layer101">
   <path id="svg_1" d="m288.926437,1293.002731c-5,-11 -10,-30 -10,-43c0,-21 -7,-25 -61,-35c-77,-15 -130,-50 -165,-109c-53,-91 -42,-196 30,-272c39,-41 50,-46 162,-77c65,-18 212,-54 326,-81l208,-49l0,-96c0,-107 3,-113 65,-122c108,-17 168,-140 115,-235c-71,-127 -271,-100 -296,40c-7,37 -30,78 -44,78c-25,0 -42,-34 -36,-73c19,-118 112,-199 231,-200c174,-2 287,167 217,325c-23,52 -86,111 -136,128l-36,12l0,71l0,72l248,59c390,92 410,99 458,150c71,77 82,181 29,273c-33,55 -85,90 -157,105c-51,11 -58,15 -58,36c0,33 -18,62 -38,62c-27,0 -42,-20 -42,-57l0,-33l-470,0l-470,0l0,29c0,16 -3,36 -6,45c-9,22 -51,20 -64,-3zm-4,-183c15,-69 74,-62 74,8l0,34l470,0l470,0l0,-33c0,-37 15,-57 42,-57c21,0 38,29 38,64c0,23 3,25 33,19c100,-19 161,-106 136,-196c-24,-88 -30,-90 -452,-191l-278,-67l-212,51c-337,81 -439,109 -460,128c-11,9 -29,36 -39,60c-47,104 27,208 158,221c5,1 14,-18 20,-41z"/>
  </g>
 </g>
</svg>