<svg width="6940" height="1580" xmlns="http://www.w3.org/2000/svg" preserveAspectRatio="xMidYMid meet">

 <g>
  <title>background</title>
  <rect fill="none" id="canvas_background" height="402" width="582" y="-1" x="-1"/>
 </g>
 <g>
  <title>Layer 1</title>
  <g fill="#596065" id="layer101">
   <path id="svg_1" d="m410,1391c-5,-11 -10,-30 -10,-43c0,-21 -7,-25 -61,-35c-77,-15 -130,-50 -165,-109c-53,-91 -42,-196 30,-272c39,-41 50,-46 162,-77c65,-18 212,-54 326,-81l208,-49l0,-96c0,-107 3,-113 65,-122c108,-17 168,-140 115,-235c-71,-127 -271,-100 -296,40c-7,37 -30,78 -44,78c-25,0 -42,-34 -36,-73c19,-118 112,-199 231,-200c174,-2 287,167 217,325c-23,52 -86,111 -136,128l-36,12l0,71l0,72l248,59c390,92 410,99 458,150c71,77 82,181 29,273c-33,55 -85,90 -157,105c-51,11 -58,15 -58,36c0,33 -18,62 -38,62c-27,0 -42,-20 -42,-57l0,-33l-470,0l-470,0l0,29c0,16 -3,36 -6,45c-9,22 -51,20 -64,-3zm-4,-183c15,-69 74,-62 74,8l0,34l470,0l470,0l0,-33c0,-37 15,-57 42,-57c21,0 38,29 38,64c0,23 3,25 33,19c100,-19 161,-106 136,-196c-24,-88 -30,-90 -452,-191l-278,-67l-212,51c-337,81 -439,109 -460,128c-11,9 -29,36 -39,60c-47,104 27,208 158,221c5,1 14,-18 20,-41z"/>
  </g>
  <g fill="#329c7e" id="layer102">
   <path id="svg_2" d="m2149,1090c-114,-19 -219,-119 -174,-164c24,-23 33,-20 72,24c41,46 85,63 165,64c70,1 111,-25 116,-72c4,-43 -30,-77 -178,-175c-143,-95 -190,-146 -190,-208c0,-102 88,-179 205,-179c108,0 245,74 245,132c0,50 -52,66 -72,22c-26,-57 -179,-95 -246,-60c-52,27 -67,79 -36,124c9,13 75,63 147,111c73,49 144,102 159,117c92,98 44,234 -92,263c-56,12 -55,12 -121,1z"/>
   <path id="svg_3" d="m2478,1089c-17,-9 -18,-37 -18,-347c0,-351 1,-362 42,-362c31,0 38,35 38,179l0,141l170,0l169,0l3,-151c3,-132 5,-153 21,-163c12,-8 22,-8 35,0c15,10 17,39 20,335c1,178 0,334 -3,345c-6,27 -30,37 -56,24c-17,-10 -19,-23 -19,-160l0,-150l-170,0l-170,0l0,143c0,127 -2,146 -18,160c-21,20 -21,20 -44,6z"/>
   <path id="svg_4" d="m3280,1087c-268,-59 -365,-406 -169,-605c217,-219 577,-57 573,258c-3,225 -197,392 -404,347zm177,-99c89,-41 147,-141 147,-253c0,-239 -259,-361 -430,-203c-102,94 -116,267 -30,380c77,100 199,130 313,76z"/>
   <path id="svg_5" d="m3747,1082c-15,-17 -17,-55 -17,-344c0,-291 2,-327 17,-339c11,-10 46,-14 117,-14c88,0 108,3 156,26c100,47 150,117 150,211c0,62 -27,115 -81,161l-41,36l66,114c36,62 66,118 66,124c0,18 -37,44 -53,37c-8,-3 -48,-62 -87,-130c-52,-90 -76,-124 -87,-120c-8,3 -44,6 -79,6l-64,0l0,115c0,103 -2,115 -19,125c-25,13 -25,13 -44,-8zm260,-340c23,-12 51,-35 62,-51c26,-36 28,-102 5,-141c-35,-59 -138,-99 -229,-88l-30,3l-3,154l-3,154l78,-5c53,-3 92,-12 120,-26z"/>
   <path id="svg_6" d="m4453,1085c-17,-12 -18,-35 -21,-319l-3,-306l-94,0c-81,0 -96,-3 -104,-18c-7,-14 -6,-25 5,-40c15,-21 21,-22 238,-22c207,0 224,1 240,19c14,15 15,24 6,40c-10,19 -20,21 -105,21l-95,0l0,296c0,172 -4,303 -10,313c-13,26 -35,32 -57,16z"/>
   <path id="svg_7" d="m4963,1090c-67,-14 -126,-44 -156,-80c-31,-37 -33,-76 -4,-94c15,-9 23,-5 50,26c43,49 87,69 156,71c70,2 117,-16 129,-51c19,-55 -7,-82 -187,-202c-167,-112 -205,-172 -167,-264c45,-108 193,-146 334,-86c88,38 130,113 79,144c-15,9 -23,6 -45,-21c-43,-50 -87,-67 -170,-68c-71,0 -75,1 -103,33c-57,63 -36,97 120,199c176,115 224,167 223,245c-2,104 -126,175 -259,148z"/>
   <path id="svg_8" d="m5463,1090c-67,-14 -126,-44 -156,-80c-31,-37 -33,-76 -4,-94c15,-9 23,-5 50,26c43,49 87,69 156,71c70,2 117,-16 129,-51c19,-55 -7,-82 -187,-202c-167,-112 -205,-172 -167,-264c45,-108 193,-146 334,-86c88,38 130,113 79,144c-15,9 -23,6 -45,-21c-43,-50 -87,-67 -170,-68c-71,0 -75,1 -103,33c-57,63 -36,97 120,199c176,115 224,167 223,245c-2,104 -126,175 -259,148z"/>
   <path id="svg_9" d="m5815,1088c-50,-27 -60,-80 -22,-116c31,-29 77,-29 105,1c31,33 28,70 -9,101c-34,29 -44,31 -74,14z"/>
   <path id="svg_10" d="m5978,1081l-23,-19l170,-339c152,-302 173,-338 194,-338c60,0 55,17 -119,366c-91,182 -172,335 -182,340c-11,6 -23,3 -40,-10z"/>
   <path id="svg_11" d="m6427,1089c-9,-6 -17,-19 -17,-30c0,-21 303,-634 328,-661c20,-24 49,-23 62,2c9,16 -17,74 -155,349c-90,182 -173,334 -183,340c-11,6 -24,6 -35,0z"/>
   <path id="svg_12" d="m5815,728c-50,-27 -60,-80 -22,-116c31,-29 77,-29 105,1c31,33 28,70 -9,101c-34,29 -44,31 -74,14z"/>
  </g>
 </g>
</svg>